<svg width="40" height="40" viewBox="0 0 40 40" fill="none" xmlns="http://www.w3.org/2000/svg">
<path d="M30.6914 9.39441C32.1727 9.39441 33.374 10.5957 33.374 12.077V27.9237C33.3739 29.4049 32.1726 30.6053 30.6914 30.6053H9.30957C7.82835 30.6053 6.62712 29.4049 6.62695 27.9237V12.077C6.62695 10.5957 7.82825 9.39441 9.30957 9.39441H30.6914ZM31.168 13.6844C30.9273 13.2676 30.3935 13.1246 29.9766 13.3651L20.001 19.1249L10.0254 13.3651C9.6085 13.1246 9.07564 13.2676 8.83496 13.6844C8.59447 14.1013 8.73747 14.6342 9.1543 14.8749L19.5654 20.8866C19.8349 21.0417 20.1672 21.0419 20.4365 20.8866L30.8486 14.8749C31.2652 14.6343 31.408 14.1012 31.168 13.6844Z" fill="white"/>
</svg>
