<?xml version="1.0" encoding="UTF-8"?>
<svg xmlns="http://www.w3.org/2000/svg" xmlns:xlink="http://www.w3.org/1999/xlink" viewBox="0 0 50 50">
  <defs>
    <style>
      .cls-1 {
        fill: none;
      }

      .cls-2 {
        fill: url(#linear-gradient);
      }

      .cls-3 {
        fill: #ccabd0;
      }

      .cls-4 {
        fill: #26182b;
      }
    </style>
    <linearGradient id="linear-gradient" x1="25.24" y1="36.43" x2="25.07" y2="18.7" gradientUnits="userSpaceOnUse">
      <stop offset="0" stop-color="#522c7b"/>
      <stop offset="1" stop-color="#8654a2"/>
    </linearGradient>
  </defs>
  <g id="bg">
    <rect class="cls-4" x="0" y="0" width="50" height="50" rx="25" ry="25"/>
  </g>
  <g id="Layer_1" data-name="Layer 1">
    <g>
      <path class="cls-2" d="M38.62,15.25c-1.1-1.93-2.78-3.15-4.85-3.55-3.39-.65-6.31.74-8.68,2.64-2.36-1.91-5.28-3.3-8.68-2.64-2.07.4-3.75,1.63-4.85,3.55-1.89,3.3-1.68,7.79-.69,10.58.43,1.22,1.7,4.36,4.14,7.27,2.36,2.81,5.08,4.55,8.11,5.2.56.14,1.16.23,1.79.27h.17s.17,0,.17,0c.63-.04,1.23-.13,1.79-.27,3.03-.65,5.75-2.4,8.11-5.2,2.44-2.91,3.71-6.05,4.14-7.27.99-2.78,1.19-7.28-.69-10.58ZM29.37,33.22c-.57,1.33-1.53,2.16-2.9,2.53-.45.1-1.07.2-1.37.2s-.92-.1-1.37-.2c-1.37-.37-2.33-1.21-2.9-2.53-1.7-3.95.47-11,2.71-13.64.53-.63,1.05-1.2,1.56-1.71.51.52,1.03,1.09,1.56,1.71,2.24,2.64,4.41,9.68,2.71,13.64ZM13.33,24.95c-.82-2.31-.91-5.94.5-8.41.72-1.26,1.76-2.03,3.08-2.29.39-.08.79-.11,1.18-.11,1.63,0,3.29.65,5.05,1.99-.58.6-1.11,1.2-1.6,1.77-1.41,1.66-2.71,4.53-3.4,7.47-.6,2.56-.69,4.96-.3,6.97-.28-.29-.56-.59-.83-.91-2.23-2.66-3.38-5.62-3.69-6.47ZM36.86,24.95c-.3.85-1.45,3.81-3.69,6.47-.27.32-.55.63-.83.91.39-2,.3-4.41-.3-6.97-.69-2.94-1.99-5.8-3.4-7.47-.48-.57-1.02-1.17-1.6-1.77,1.75-1.34,3.41-1.99,5.05-1.99.4,0,.79.04,1.18.11,1.32.25,2.35,1.02,3.08,2.29,1.41,2.47,1.32,6.1.5,8.41Z"/>
      <g>
        <path class="cls-1" d="M28.49,12.27c.31-.12.64-.23.97-.35-.14.04-.27.08-.41.13-.19.06-.37.14-.56.21Z"/>
        <path class="cls-1" d="M17.69,11.54c.93.01,1.75.1,2.49.24-.45-.11-.9-.18-1.35-.22-.38-.03-.76-.04-1.14-.02Z"/>
        <path class="cls-3" d="M39.55,17.28c-.13-.5-.53-1.48-.9-2.13-1.1-1.93-2.79-3.16-4.86-3.56-.82-.16-1.65-.2-2.46-.13-.62.05-1.25.18-1.87.36-.33.11-.66.23-.97.35-1.13.47-2.28,1.16-3.41,2.08h0s0,0,0,0c-1.32-1.06-2.65-1.83-3.97-2.29-.31-.11-.62-.2-.93-.27-.73-.14-1.56-.23-2.49-.24-.44.02-.88.07-1.32.15-1.37.26-2.56.89-3.54,1.84-1.65,1.71-2.25,3.95-2.3,4.21-.12.52-1.33,4.81.15,4.88s.09-3.24.62-4.63,1.23-.8,1.36-.22c.12.59-.06,1.82,1.11,1.98s1.23-1.73,1.27-2.1c.03-.37.23-.91.93-.8.67.11.57,1.73,1.85,1.88,1.46.17,1.33-1.11,2.16-1.11s1.05.46.99,1.17c-.06.71-.52,2.44.56,2.53,1.08.09.56-1.82.52-2.56-.03-.74-.31-2.41,1.33-2.5,1.64-.09,1.36,1.54,1.27,1.82-.09.28-.74,1.85.37,1.91s.43-1.54.43-2.1.06-1.33.68-1.33.71,1.3.65,1.91-.91,2.71.22,2.81c1.04.09.19-1.88.37-3.06.19-1.17.71-1.91,1.36-1.57.65.34,1.23,1.23,2.1,1.27.86.03,1.42-.86,2.38-.85.96.02.73.97.65,1.32-.07.32-.26,1.1.4,1.05.58-.04.24-.85.24-1.59s.59-1.17,1.23-.79c.65.39.37,1.19,1.36,1.37.99.19.96-1.02,1.67-.86.71.15-.22,1.51.68,1.54.45.02.27-1.24.14-1.74Z"/>
      </g>
    </g>
  </g>
</svg>