<?xml version="1.0" encoding="UTF-8"?>
<svg id="Layer_1" data-name="Layer 1" xmlns="http://www.w3.org/2000/svg" xmlns:xlink="http://www.w3.org/1999/xlink" viewBox="0 0 50 50">
  <defs>
    <style>
      .cls-1 {
        fill: none;
      }

      .cls-2 {
        fill: url(#linear-gradient);
      }

      .cls-3 {
        fill: #ccabd0;
      }
    </style>
    <linearGradient id="linear-gradient" x1="25.35" y1="41.69" x2="25.1" y2="15.81" gradientUnits="userSpaceOnUse">
      <stop offset="0" stop-color="#522c7b"/>
      <stop offset="1" stop-color="#8654a2"/>
    </linearGradient>
  </defs>
  <path class="cls-2" d="M44.88,10.76c-1.61-2.81-4.05-4.6-7.08-5.18-4.95-.95-9.21,1.07-12.66,3.86-3.45-2.78-7.71-4.81-12.66-3.86-3.02.58-5.47,2.37-7.08,5.18-2.75,4.81-2.45,11.38-1.01,15.44.63,1.78,2.49,6.37,6.05,10.61,3.44,4.1,7.41,6.64,11.84,7.59.82.21,1.69.34,2.61.39h.25s.25,0,.25,0c.92-.05,1.79-.18,2.61-.39,4.43-.95,8.4-3.5,11.84-7.59,3.56-4.25,5.42-8.84,6.05-10.61,1.44-4.06,1.74-10.62-1.01-15.44ZM31.38,37c-.83,1.94-2.23,3.16-4.23,3.7-.66.14-1.56.29-2.01.29s-1.35-.15-2.01-.29c-2-.54-3.4-1.76-4.23-3.7-2.48-5.77.69-16.05,3.96-19.9.78-.92,1.54-1.75,2.28-2.5.75.75,1.51,1.59,2.28,2.5,3.26,3.85,6.43,14.13,3.96,19.9ZM7.97,24.93c-1.2-3.37-1.33-8.67.73-12.27,1.05-1.84,2.57-2.97,4.49-3.34.57-.11,1.15-.17,1.73-.17,2.39,0,4.81.95,7.36,2.91-.85.87-1.63,1.75-2.33,2.58-2.06,2.43-3.96,6.6-4.96,10.9-.87,3.74-1.01,7.24-.44,10.17-.41-.42-.81-.86-1.21-1.33-3.26-3.88-4.94-8.21-5.38-9.44ZM42.3,24.93c-.44,1.23-2.12,5.56-5.38,9.44-.39.47-.8.91-1.21,1.33.58-2.93.44-6.43-.44-10.17-1-4.29-2.9-8.47-4.96-10.9-.71-.83-1.48-1.71-2.33-2.58,2.56-1.95,4.98-2.91,7.36-2.91.58,0,1.15.06,1.73.17,1.93.37,3.44,1.49,4.49,3.34,2.06,3.6,1.93,8.9.73,12.27Z"/>
  <g>
    <path class="cls-1" d="M30.09,6.42c.46-.17.93-.34,1.42-.5-.2.06-.4.12-.6.19-.27.09-.54.2-.82.31Z"/>
    <path class="cls-1" d="M14.33,5.35c1.35.02,2.56.15,3.63.36-.65-.16-1.31-.27-1.96-.32-.55-.05-1.11-.06-1.67-.03Z"/>
    <path class="cls-3" d="M46.24,13.74c-.19-.73-.78-2.17-1.31-3.11-1.61-2.82-4.07-4.62-7.1-5.2-1.2-.23-2.41-.29-3.6-.19-.91.08-1.82.26-2.73.53-.49.16-.96.33-1.42.5-1.65.68-3.32,1.7-4.97,3.03h0s0,0,0,0c-1.92-1.55-3.87-2.67-5.79-3.34-.45-.16-.91-.29-1.36-.4-1.07-.2-2.28-.34-3.63-.36-.64.03-1.29.1-1.93.23-2,.38-3.74,1.3-5.16,2.68-2.4,2.5-3.28,5.76-3.36,6.14-.17.75-1.94,7.03.23,7.12s.14-4.73.9-6.76c.77-2.03,1.8-1.17,1.98-.32.18.86-.09,2.66,1.62,2.88s1.8-2.52,1.85-3.06c.05-.54.34-1.33,1.35-1.17.98.16.83,2.53,2.7,2.75,2.13.25,1.94-1.62,3.15-1.62s1.53.68,1.44,1.71c-.09,1.04-.77,3.56.81,3.69,1.58.14.81-2.66.77-3.74-.05-1.08-.45-3.51,1.94-3.65,2.39-.14,1.98,2.25,1.85,2.66-.14.41-1.08,2.7.54,2.79s.63-2.25.63-3.06.09-1.94.99-1.94,1.04,1.89.95,2.79c-.09.9-1.33,3.95.32,4.1,1.52.14.27-2.75.54-4.46.27-1.71,1.04-2.79,1.98-2.3.95.5,1.8,1.8,3.06,1.85,1.26.05,2.07-1.26,3.47-1.24,1.4.02,1.06,1.41.95,1.93-.1.46-.39,1.61.58,1.54.85-.06.36-1.24.36-2.32s.86-1.71,1.8-1.15c.95.56.54,1.73,1.98,2,1.44.27,1.4-1.49,2.43-1.26,1.04.23-.32,2.21.99,2.25.66.02.39-1.82.2-2.54Z"/>
  </g>
</svg>