<svg width="71" height="71" viewBox="0 0 71 71" fill="none" xmlns="http://www.w3.org/2000/svg">
<rect x="19.8705" y="3.61406" width="31.1838" height="53.1539" rx="15.5919" stroke="#FCFBFC" stroke-width="7.22813"/>
<rect x="7.94788" y="28.2413" width="54.4713" height="42.1264" rx="5.62188" fill="#00EB9F"/>
<path d="M47.0058 37.4523C47.1357 37.4447 47.2657 37.4391 47.3958 37.4354C49.5806 37.3786 50.8985 39.6112 49.7061 41.3688C48.8891 42.5729 47.1998 44.0027 46.1198 45.0931L37.5905 53.6467C36.1518 55.0885 34.4131 56.9797 32.7924 58.1562C30.9303 59.508 28.018 55.781 26.8345 54.5771C25.3542 53.0698 22.4197 50.9948 24.6001 48.6673C25.0458 48.1892 25.664 47.9089 26.3173 47.8886C26.7682 47.8763 27.2143 47.9828 27.6112 48.1974C28.3606 48.6099 30.9241 51.2468 31.7783 52.0413L41.6316 42.1881C43.0579 40.7656 44.5104 39.1956 46.0019 37.8501C46.2796 37.5997 46.6419 37.533 47.0058 37.4523Z" fill="#FCFBFC"/>
</svg>
