<?xml version="1.0" encoding="UTF-8"?>
<svg id="Layer_1" data-name="Layer 1" xmlns="http://www.w3.org/2000/svg" xmlns:xlink="http://www.w3.org/1999/xlink" viewBox="0 0 960 182">
  <defs>
    <style>
      .cls-1 {
        fill: none;
      }

      .cls-2 {
        fill: url(#linear-gradient);
      }

      .cls-3 {
        letter-spacing: -.02em;
      }

      .cls-3, .cls-4, .cls-5 {
        fill: #fff;
      }

      .cls-4 {
        letter-spacing: -.04em;
      }

      .cls-6 {
        fill: #ccabd0;
      }

      .cls-7 {
        fill: #8d5ea7;
      }

      .cls-8 {
        font-family: AkzidenzGroteskPro-Md, 'Akzidenz-Grotesk Pro';
        font-size: 97.96px;
        font-weight: 500;
      }
    </style>
    <linearGradient id="linear-gradient" x1="97.9" y1="159.24" x2="96.84" y2="48.59" gradientUnits="userSpaceOnUse">
      <stop offset="0" stop-color="#522c7b"/>
      <stop offset="1" stop-color="#8654a2"/>
    </linearGradient>
  </defs>
  <g>
    <path class="cls-2" d="M181.4,27.02c-6.87-12.02-17.34-19.68-30.26-22.17-21.18-4.07-39.4,4.59-54.15,16.49C82.24,9.44,64.03.78,42.84,4.85c-12.92,2.48-23.38,10.15-30.26,22.17C.81,47.61,2.09,75.67,8.26,93.03c2.7,7.59,10.63,27.22,25.87,45.38,14.71,17.52,31.69,28.4,50.63,32.47,3.49.89,7.21,1.46,11.16,1.68l1.08.03,1.08-.03c3.95-.22,7.67-.79,11.16-1.68,18.93-4.07,35.92-14.95,50.63-32.47,15.24-18.16,23.17-37.78,25.87-45.38,6.17-17.36,7.46-45.43-4.32-66.01ZM123.67,139.2c-3.56,8.29-9.53,13.5-18.09,15.81-2.81.6-6.69,1.23-8.58,1.23s-5.77-.63-8.58-1.23c-8.57-2.31-14.53-7.52-18.09-15.81-10.6-24.68,2.95-68.64,16.91-85.11,3.32-3.91,6.57-7.47,9.76-10.69,3.19,3.22,6.44,6.78,9.76,10.69,13.96,16.47,27.51,60.43,16.91,85.11ZM23.59,87.58c-5.13-14.42-5.7-37.07,3.11-52.48,4.51-7.88,10.97-12.68,19.21-14.27,2.46-.47,4.92-.71,7.39-.71,10.2,0,20.56,4.07,31.49,12.42-3.62,3.72-6.95,7.46-9.97,11.03-8.8,10.38-16.93,28.24-21.21,46.61-3.72,15.98-4.32,30.97-1.86,43.48-1.75-1.8-3.47-3.7-5.16-5.71-13.92-16.59-21.13-35.09-23-40.37ZM170.39,87.58c-1.88,5.28-9.08,23.78-23,40.37-1.69,2.01-3.41,3.91-5.16,5.71,2.46-12.51,1.86-27.5-1.86-43.48-4.28-18.36-12.41-36.22-21.21-46.61-3.02-3.56-6.35-7.31-9.97-11.03,10.93-8.35,21.29-12.42,31.49-12.42,2.47,0,4.93.24,7.39.71,8.23,1.58,14.7,6.38,19.21,14.27,8.82,15.41,8.24,38.07,3.11,52.48Z"/>
    <g>
      <path class="cls-1" d="M118.16,8.44c1.95-.74,3.97-1.47,6.05-2.16-.85.26-1.71.53-2.56.82-1.16.4-2.33.85-3.5,1.33Z"/>
      <path class="cls-1" d="M50.77,3.88c5.78.09,10.94.65,15.52,1.52-2.8-.67-5.61-1.14-8.4-1.38-2.36-.2-4.74-.25-7.13-.14Z"/>
      <path class="cls-6" d="M187.22,39.73c-.82-3.12-3.33-9.26-5.62-13.28-6.9-12.06-17.39-19.75-30.36-22.24-5.11-.98-10.29-1.26-15.38-.82-3.87.33-7.78,1.1-11.66,2.26-2.08.69-4.11,1.41-6.05,2.16-7.07,2.92-14.21,7.27-21.26,12.95l-.02.02-.02-.02c-8.22-6.63-16.54-11.44-24.75-14.29-1.93-.67-3.87-1.23-5.82-1.7-4.58-.87-9.75-1.44-15.52-1.52-2.75.12-5.51.44-8.25.96-8.54,1.64-16.01,5.56-22.09,11.48-10.28,10.69-14.02,24.64-14.38,26.25-.72,3.23-8.28,30.05.96,30.43,9.25.39.58-20.23,3.85-28.89,3.27-8.67,7.7-5.01,8.48-1.35.77,3.66-.39,11.36,6.93,12.33,7.32.96,7.7-10.79,7.9-13.1.19-2.31,1.46-5.7,5.78-5.01,4.2.67,3.56,10.82,11.56,11.75,9.12,1.06,8.28-6.93,13.48-6.93s6.55,2.89,6.16,7.32c-.39,4.43-3.27,15.22,3.47,15.8,6.74.58,3.47-11.36,3.27-15.99-.19-4.62-1.93-15.02,8.28-15.6,10.21-.58,8.48,9.63,7.9,11.36-.58,1.73-4.62,11.56,2.31,11.94,6.93.39,2.7-9.63,2.7-13.1s.39-8.28,4.24-8.28,4.43,8.09,4.05,11.94-5.69,16.9,1.35,17.53c6.5.58,1.16-11.75,2.31-19.07,1.16-7.32,4.43-11.94,8.48-9.82,4.04,2.12,7.7,7.7,13.1,7.9,5.39.19,8.86-5.39,14.83-5.29,5.97.09,4.54,6.03,4.08,8.25-.41,1.97-1.65,6.89,2.5,6.58,3.63-.27,1.52-5.3,1.52-9.92s3.66-7.31,7.7-4.91c4.05,2.41,2.31,7.41,8.48,8.57,6.16,1.16,5.97-6.36,10.4-5.39,4.43.96-1.35,9.44,4.24,9.63,2.81.1,1.69-7.77.87-10.88Z"/>
    </g>
  </g>
  <text class="cls-8" transform="translate(219.7 110.71)"><tspan class="cls-5" x="0" y="0">get-ha</tspan><tspan class="cls-3" x="289.47" y="0">r</tspan><tspan class="cls-5" x="322.19" y="0">de</tspan><tspan class="cls-4" x="434.35" y="0">r</tspan><tspan class="cls-7" x="465.02" y="0">.today</tspan></text>
</svg>