<?xml version="1.0" encoding="UTF-8"?>
<svg id="Layer_1" data-name="Layer 1" xmlns="http://www.w3.org/2000/svg" xmlns:xlink="http://www.w3.org/1999/xlink" viewBox="0 0 960 182">
  <defs>
    <style>
      .cls-1 {
        fill: none;
      }

      .cls-2 {
        fill: url(#linear-gradient);
      }

      .cls-3 {
        fill: #ccabd0;
      }

      .cls-4 {
        fill: #fff;
      }

      .cls-5 {
        fill: #8d5ea7;
      }
    </style>
    <linearGradient id="linear-gradient" x1="97.9" y1="159.24" x2="96.84" y2="48.59" gradientUnits="userSpaceOnUse">
      <stop offset="0" stop-color="#522c7b"/>
      <stop offset="1" stop-color="#8654a2"/>
    </linearGradient>
  </defs>
  <g>
    <path class="cls-2" d="M181.4,27.02c-6.87-12.02-17.34-19.68-30.26-22.17-21.18-4.07-39.4,4.59-54.15,16.49C82.24,9.44,64.03.78,42.84,4.85c-12.92,2.48-23.38,10.15-30.26,22.17C.81,47.61,2.09,75.67,8.26,93.03c2.7,7.59,10.63,27.22,25.87,45.38,14.71,17.52,31.69,28.4,50.63,32.47,3.49.89,7.21,1.46,11.16,1.68l1.08.03,1.08-.03c3.95-.22,7.67-.79,11.16-1.68,18.93-4.07,35.92-14.95,50.63-32.47,15.24-18.16,23.17-37.78,25.87-45.38,6.17-17.36,7.46-45.43-4.32-66.01ZM123.67,139.2c-3.56,8.29-9.53,13.5-18.09,15.81-2.81.6-6.69,1.23-8.58,1.23s-5.77-.63-8.58-1.23c-8.57-2.31-14.53-7.52-18.09-15.81-10.6-24.68,2.95-68.64,16.91-85.11,3.32-3.91,6.57-7.47,9.76-10.69,3.19,3.22,6.44,6.78,9.76,10.69,13.96,16.47,27.51,60.43,16.91,85.11ZM23.59,87.58c-5.13-14.42-5.7-37.07,3.11-52.48,4.51-7.88,10.97-12.68,19.21-14.27,2.46-.47,4.92-.71,7.39-.71,10.2,0,20.56,4.07,31.49,12.42-3.62,3.72-6.95,7.46-9.97,11.03-8.8,10.38-16.93,28.24-21.21,46.61-3.72,15.98-4.32,30.97-1.86,43.48-1.75-1.8-3.47-3.7-5.16-5.71-13.92-16.59-21.13-35.09-23-40.37ZM170.39,87.58c-1.88,5.28-9.08,23.78-23,40.37-1.69,2.01-3.41,3.91-5.16,5.71,2.46-12.51,1.86-27.5-1.86-43.48-4.28-18.36-12.41-36.22-21.21-46.61-3.02-3.56-6.35-7.31-9.97-11.03,10.93-8.35,21.29-12.42,31.49-12.42,2.47,0,4.93.24,7.39.71,8.23,1.58,14.7,6.38,19.21,14.27,8.82,15.41,8.24,38.07,3.11,52.48Z"/>
    <g>
      <path class="cls-1" d="M118.16,8.44c1.95-.74,3.97-1.47,6.05-2.16-.85.26-1.71.53-2.56.82-1.16.4-2.33.85-3.5,1.33Z"/>
      <path class="cls-1" d="M50.77,3.88c5.78.09,10.94.65,15.52,1.52-2.8-.67-5.61-1.14-8.4-1.38-2.36-.2-4.74-.25-7.13-.14Z"/>
      <path class="cls-3" d="M187.22,39.73c-.82-3.12-3.33-9.26-5.62-13.28-6.9-12.06-17.39-19.75-30.36-22.24-5.11-.98-10.29-1.26-15.38-.82-3.87.33-7.78,1.1-11.66,2.26-2.08.69-4.11,1.41-6.05,2.16-7.07,2.92-14.21,7.27-21.26,12.95l-.02.02-.02-.02c-8.22-6.63-16.54-11.44-24.75-14.29-1.93-.67-3.87-1.23-5.82-1.7-4.58-.87-9.75-1.44-15.52-1.52-2.75.12-5.51.44-8.25.96-8.54,1.64-16.01,5.56-22.09,11.48-10.28,10.69-14.02,24.64-14.38,26.25-.72,3.23-8.28,30.05.96,30.43,9.25.39.58-20.23,3.85-28.89,3.27-8.67,7.7-5.01,8.48-1.35.77,3.66-.39,11.36,6.93,12.33,7.32.96,7.7-10.79,7.9-13.1.19-2.31,1.46-5.7,5.78-5.01,4.2.67,3.56,10.82,11.56,11.75,9.12,1.06,8.28-6.93,13.48-6.93s6.55,2.89,6.16,7.32c-.39,4.43-3.27,15.22,3.47,15.8,6.74.58,3.47-11.36,3.27-15.99-.19-4.62-1.93-15.02,8.28-15.6,10.21-.58,8.48,9.63,7.9,11.36-.58,1.73-4.62,11.56,2.31,11.94s2.7-9.63,2.7-13.1.39-8.28,4.24-8.28,4.43,8.09,4.05,11.94c-.39,3.85-5.69,16.9,1.35,17.53,6.5.58,1.16-11.75,2.31-19.07,1.16-7.32,4.43-11.94,8.48-9.82,4.04,2.12,7.7,7.7,13.1,7.9,5.39.19,8.86-5.39,14.83-5.29,5.97.09,4.54,6.03,4.08,8.25-.41,1.97-1.65,6.89,2.5,6.58,3.63-.27,1.52-5.3,1.52-9.92s3.66-7.31,7.7-4.91c4.05,2.41,2.31,7.41,8.48,8.57,6.16,1.16,5.97-6.36,10.4-5.39,4.43.96-1.35,9.44,4.24,9.63,2.81.1,1.69-7.77.87-10.88Z"/>
    </g>
  </g>
  <g>
    <path class="cls-4" d="M270.64,61.73v46.53c0,12.54-7.87,18.81-23.61,18.81-4.31,0-7.95-.46-10.92-1.37-2.97-.92-5.21-2.22-6.71-3.92-1.5-1.7-2.56-3.27-3.18-4.7-.62-1.44-1.16-3.2-1.62-5.29h12.93c.46,2.22,1.7,3.79,3.72,4.7,2.02.91,4.05,1.37,6.07,1.37,3.79,0,6.68-.82,8.67-2.45,1.99-1.63,2.99-4.44,2.99-8.42v-4.31c-3.85,3.46-8.78,5.19-14.79,5.19s-10.79-1.94-14.94-5.83c-4.15-3.88-6.22-9.71-6.22-17.49s2.22-14.01,6.66-18.12c4.44-4.11,9.6-6.17,15.48-6.17,6.2,0,10.81,2.22,13.81,6.66v-5.19h11.66ZM259.27,84.65c0-4.05-1.04-7.38-3.13-9.99-2.09-2.61-5.09-3.92-9.01-3.92-3.33,0-6.17,1.14-8.52,3.43-2.35,2.29-3.53,5.65-3.53,10.09,0,3.92,1.06,7.05,3.18,9.4,2.12,2.35,5.11,3.53,8.96,3.53s6.74-1.13,8.87-3.38c2.12-2.25,3.18-5.31,3.18-9.16Z"/>
    <path class="cls-4" d="M328.82,88.57h-36.25c.06.65.2,1.41.39,2.25.2.85.62,1.88,1.27,3.09.65,1.21,1.45,2.3,2.4,3.28.95.98,2.27,1.81,3.97,2.5,1.7.69,3.62,1.03,5.78,1.03,5.88,0,10.15-2.25,12.83-6.76l9.99,5.78c-6.14,8.29-14.11,12.44-23.9,12.44-7.45,0-13.5-2.37-18.17-7.1-4.67-4.73-7-11.12-7-19.15s2.38-14.65,7.15-19.05c4.77-4.41,10.58-6.61,17.44-6.61,4.44,0,8.31.83,11.61,2.5,3.3,1.67,5.81,3.92,7.54,6.76,1.73,2.84,2.99,5.83,3.77,8.96.78,3.13,1.18,6.5,1.18,10.09ZM292.97,79.95h22.92c-.07-.85-.25-1.75-.54-2.69-.29-.95-.8-2.04-1.52-3.28-.72-1.24-1.85-2.27-3.38-3.09-1.54-.82-3.38-1.22-5.53-1.22s-4.16.41-5.83,1.22c-1.67.82-2.91,1.91-3.72,3.28-.82,1.37-1.37,2.47-1.67,3.28-.29.82-.54,1.65-.74,2.5Z"/>
    <path class="cls-4" d="M332.25,70.06v-8.33h7.15v-17.44h11.75v17.44h10.48v8.33h-10.48v24.29c0,2.61.39,4.34,1.18,5.19.91.98,2.38,1.47,4.41,1.47,1.83,0,3.46-.2,4.9-.59v9.89c-4.18.52-6.99.78-8.42.78-5.09,0-8.67-.95-10.73-2.84-2.06-1.89-3.09-4.9-3.09-9.01v-29.19h-7.15Z"/>
    <path class="cls-4" d="M394.85,86.51h-28.31v-11.07h28.31v11.07Z"/>
    <path class="cls-4" d="M449.9,110.71h-11.56v-28.7c0-3.53-.8-6.17-2.4-7.93-1.6-1.76-3.87-2.65-6.81-2.65-3.33,0-6.21,1.14-8.62,3.43-2.42,2.29-3.62,5.19-3.62,8.72v27.14h-11.75V41.55h11.75v25.18c4.18-4.31,9.34-6.47,15.48-6.47,5.42,0,9.7,1.5,12.83,4.51,3.13,3,4.7,7.28,4.7,12.83v33.11Z"/>
    <path class="cls-4" d="M505.05,110.71h-13.91l-.29-3.82c-4.25,3.33-9.05,5-14.4,5s-9.75-1.44-12.98-4.31c-3.23-2.87-4.85-6.43-4.85-10.68,0-8.95,5.81-14.46,17.44-16.56,6.59-1.24,11.62-2.45,15.09-3.62,0-2.29-.57-4.08-1.71-5.39-1.14-1.31-3.38-1.96-6.71-1.96-6.6,0-9.89,2.45-9.89,7.35l-11.95-.69c.06-.78.13-1.44.2-1.96.06-.52.26-1.37.59-2.55.33-1.18.75-2.2,1.27-3.09.52-.88,1.32-1.86,2.4-2.94,1.08-1.08,2.33-1.97,3.77-2.69,1.44-.72,3.3-1.32,5.58-1.81,2.29-.49,4.83-.73,7.64-.73,13.71,0,20.57,4.64,20.57,13.91v28.6c0,1.89.11,3.32.34,4.26.23.95.83,2.17,1.81,3.67ZM491.14,92.88v-6.56c-2.55,1.24-5.65,2.15-9.31,2.74-1.63.26-2.97.51-4.02.73-1.04.23-2.16.59-3.33,1.08-1.18.49-2.04,1.14-2.6,1.96-.56.82-.83,1.81-.83,2.99,0,1.76.65,3.2,1.96,4.31,1.31,1.11,3.33,1.67,6.07,1.67,3.07,0,5.84-.77,8.33-2.3,2.48-1.53,3.72-3.74,3.72-6.61Z"/>
    <path class="cls-4" d="M515.44,61.73h11.36v6.96c2.55-5.35,7.41-8.03,14.6-8.03h.98v12.05c-7.9,0-12.8,3-14.69,9.01-.59,1.83-.88,4.51-.88,8.03v20.96h-11.36v-48.98Z"/>
    <path class="cls-4" d="M592.43,110.71h-11.66v-4.7c-3.46,4.11-8,6.17-13.62,6.17s-10.89-2.11-15.23-6.32c-4.34-4.21-6.51-10.43-6.51-18.66s2.17-14.94,6.51-19.74c4.34-4.8,9.58-7.2,15.72-7.2,2.35,0,4.75.46,7.2,1.37,2.45.92,4.42,2.29,5.93,4.11v-24.2h11.66v69.16ZM557.66,85.93c0,4.18.95,7.82,2.84,10.92,1.89,3.1,4.83,4.65,8.82,4.65,3.27,0,5.98-1.29,8.13-3.87,2.16-2.58,3.23-6.09,3.23-10.53s-.85-8.29-2.55-11.36c-1.7-3.07-4.6-4.6-8.72-4.6-3.59,0-6.45,1.41-8.57,4.21-2.12,2.81-3.18,6.33-3.18,10.58Z"/>
    <path class="cls-4" d="M651.01,88.57h-36.25c.06.65.2,1.41.39,2.25.2.85.62,1.88,1.27,3.09.65,1.21,1.45,2.3,2.4,3.28.95.98,2.27,1.81,3.97,2.5,1.7.69,3.62,1.03,5.78,1.03,5.88,0,10.15-2.25,12.83-6.76l9.99,5.78c-6.14,8.29-14.11,12.44-23.9,12.44-7.45,0-13.5-2.37-18.17-7.1-4.67-4.73-7-11.12-7-19.15s2.38-14.65,7.15-19.05c4.77-4.41,10.58-6.61,17.44-6.61,4.44,0,8.31.83,11.61,2.5,3.3,1.67,5.81,3.92,7.54,6.76,1.73,2.84,2.99,5.83,3.77,8.96.78,3.13,1.18,6.5,1.18,10.09ZM615.16,79.95h22.92c-.07-.85-.25-1.75-.54-2.69-.29-.95-.8-2.04-1.52-3.28-.72-1.24-1.85-2.27-3.38-3.09-1.54-.82-3.38-1.22-5.53-1.22s-4.16.41-5.83,1.22c-1.67.82-2.91,1.91-3.72,3.28-.82,1.37-1.37,2.47-1.67,3.28-.29.82-.54,1.65-.74,2.5Z"/>
    <path class="cls-4" d="M660.32,61.73h11.36v6.96c2.55-5.35,7.41-8.03,14.6-8.03h.98v12.05c-7.9,0-12.8,3-14.69,9.01-.59,1.83-.88,4.51-.88,8.03v20.96h-11.36v-48.98Z"/>
    <path class="cls-5" d="M701.27,110.71h-12.93v-13.42h12.93v13.42Z"/>
    <path class="cls-5" d="M705.48,70.06v-8.33h7.15v-17.44h11.75v17.44h10.48v8.33h-10.48v24.29c0,2.61.39,4.34,1.18,5.19.91.98,2.38,1.47,4.41,1.47,1.83,0,3.46-.2,4.9-.59v9.89c-4.18.52-6.99.78-8.42.78-5.09,0-8.67-.95-10.73-2.84-2.06-1.89-3.09-4.9-3.09-9.01v-29.19h-7.15Z"/>
    <path class="cls-5" d="M789.53,86.02c0,7.12-2.19,13.26-6.56,18.42-4.38,5.16-10.48,7.74-18.32,7.74-3.46,0-6.63-.52-9.5-1.57-2.88-1.04-5.27-2.43-7.2-4.16-1.93-1.73-3.56-3.74-4.9-6.02-1.34-2.29-2.32-4.64-2.94-7.05-.62-2.42-.93-4.86-.93-7.35,0-4.18.85-8.16,2.55-11.95,1.7-3.79,4.51-7.04,8.42-9.75,3.92-2.71,8.62-4.06,14.11-4.06,2.81,0,5.63.49,8.47,1.47s5.53,2.43,8.08,4.36c2.55,1.93,4.64,4.62,6.27,8.08,1.63,3.46,2.45,7.41,2.45,11.85ZM751.42,85.73c0,4.51,1.19,8.25,3.58,11.22,2.38,2.97,5.6,4.46,9.65,4.46s7.17-1.45,9.36-4.36c2.19-2.9,3.28-6.38,3.28-10.43,0-4.31-1.14-8.02-3.43-11.12-2.29-3.1-5.55-4.65-9.8-4.65-3.59,0-6.6,1.29-9.01,3.87-2.42,2.58-3.62,6.25-3.62,11.02Z"/>
    <path class="cls-5" d="M843.41,110.71h-11.66v-4.7c-3.46,4.11-8,6.17-13.62,6.17s-10.89-2.11-15.23-6.32c-4.34-4.21-6.51-10.43-6.51-18.66s2.17-14.94,6.51-19.74c4.34-4.8,9.58-7.2,15.72-7.2,2.35,0,4.75.46,7.2,1.37,2.45.92,4.42,2.29,5.93,4.11v-24.2h11.66v69.16ZM808.63,85.93c0,4.18.95,7.82,2.84,10.92,1.89,3.1,4.83,4.65,8.82,4.65,3.27,0,5.98-1.29,8.13-3.87,2.16-2.58,3.23-6.09,3.23-10.53s-.85-8.29-2.55-11.36c-1.7-3.07-4.6-4.6-8.72-4.6-3.59,0-6.45,1.41-8.57,4.21-2.12,2.81-3.18,6.33-3.18,10.58Z"/>
    <path class="cls-5" d="M898.95,110.71h-13.91l-.29-3.82c-4.25,3.33-9.05,5-14.4,5s-9.75-1.44-12.98-4.31c-3.23-2.87-4.85-6.43-4.85-10.68,0-8.95,5.81-14.46,17.44-16.56,6.59-1.24,11.62-2.45,15.09-3.62,0-2.29-.57-4.08-1.71-5.39-1.14-1.31-3.38-1.96-6.71-1.96-6.6,0-9.89,2.45-9.89,7.35l-11.95-.69c.06-.78.13-1.44.2-1.96.06-.52.26-1.37.59-2.55.33-1.18.75-2.2,1.27-3.09.52-.88,1.32-1.86,2.4-2.94,1.08-1.08,2.33-1.97,3.77-2.69,1.44-.72,3.3-1.32,5.58-1.81,2.29-.49,4.83-.73,7.64-.73,13.71,0,20.57,4.64,20.57,13.91v28.6c0,1.89.11,3.32.34,4.26.23.95.83,2.17,1.81,3.67ZM885.04,92.88v-6.56c-2.55,1.24-5.65,2.15-9.31,2.74-1.63.26-2.97.51-4.02.73-1.04.23-2.16.59-3.33,1.08-1.18.49-2.04,1.14-2.6,1.96-.56.82-.83,1.81-.83,2.99,0,1.76.65,3.2,1.96,4.31,1.31,1.11,3.33,1.67,6.07,1.67,3.07,0,5.84-.77,8.33-2.3,2.48-1.53,3.72-3.74,3.72-6.61Z"/>
    <path class="cls-5" d="M937.06,61.73h12.05l-13.03,44.67c-.85,3-1.55,5.34-2.11,7-.55,1.67-1.42,3.69-2.6,6.07-1.18,2.38-2.38,4.1-3.62,5.14-2.42,1.96-5.75,2.94-9.99,2.94-2.48,0-4.8-.23-6.96-.69v-10.19c.78.13,1.86.2,3.23.2,4.24,0,6.89-1.73,7.93-5.19l-17.73-49.96h12.64l10.97,36.54,9.21-36.54Z"/>
  </g>
</svg>