<svg width="20" height="20" viewBox="0 0 20 20" fill="none" xmlns="http://www.w3.org/2000/svg">
<path d="M10.001 1.34229C12.1864 1.34229 13.958 3.11391 13.958 5.29932V6.9751H14.4424C15.5469 6.9751 16.4423 7.87064 16.4424 8.9751V16.6577C16.4424 17.7623 15.547 18.6577 14.4424 18.6577H5.55762C4.45305 18.6577 3.55762 17.7623 3.55762 16.6577V8.9751C3.55775 7.87064 4.45313 6.9751 5.55762 6.9751H6.04395V5.29932C6.04396 3.11391 7.81557 1.34229 10.001 1.34229ZM9.99902 11.2388C9.1652 11.2388 8.48926 11.9147 8.48926 12.7485C8.48926 13.5824 9.1652 14.2583 9.99902 14.2583C10.8328 14.2583 11.5088 13.5824 11.5088 12.7485C11.5088 11.9147 10.8328 11.2388 9.99902 11.2388ZM10.001 2.84229C8.644 2.84229 7.54396 3.94234 7.54395 5.29932V6.9751H12.458V5.29932C12.458 3.94234 11.358 2.84229 10.001 2.84229Z" fill="url(#paint0_linear_95_1379)"/>
<defs>
<linearGradient id="paint0_linear_95_1379" x1="8.17259" y1="1.34229" x2="13.0348" y2="18.6577" gradientUnits="userSpaceOnUse">
<stop stop-color="#F899FF"/>
<stop offset="0.875" stop-color="#AE52E7"/>
</linearGradient>
</defs>
</svg>
