<svg width="43" height="39" viewBox="0 0 43 39" fill="none" xmlns="http://www.w3.org/2000/svg">
<g clip-path="url(#clip0_255_74)">
<path d="M40.0947 6.18381C38.5918 3.55421 36.3013 1.87845 33.4748 1.33371C28.8413 0.443323 24.8553 2.33786 21.6285 4.9412C18.4016 2.33786 14.4179 0.443323 9.78215 1.33371C6.95566 1.87626 4.66734 3.55421 3.16221 6.18381C0.587306 10.6883 0.86733 16.8269 2.21713 20.6247C2.80781 22.2852 4.54264 26.5796 7.87667 30.5524C11.0948 34.3853 14.8094 36.7655 18.9529 37.6559C19.7164 37.8506 20.5302 37.9753 21.3944 38.0234L21.6306 38.0299L21.8669 38.0234C22.7311 37.9753 23.5449 37.8506 24.3084 37.6559C28.4497 36.7655 32.1665 34.3853 35.3846 30.5524C38.7187 26.5796 40.4535 22.2874 41.0442 20.6247C42.394 16.8269 42.6762 10.6861 40.0991 6.18381H40.0947ZM27.4652 30.7253C26.6864 32.5389 25.3803 33.6786 23.5077 34.184C22.8929 34.3153 22.0441 34.4531 21.6306 34.4531C21.2172 34.4531 20.3684 34.3153 19.7536 34.184C17.8788 33.6786 16.5749 32.5389 15.7961 30.7253C13.4771 25.3261 16.4415 15.709 19.4955 12.1059C20.2218 11.2505 20.9328 10.4717 21.6306 9.76724C22.3285 10.4717 23.0395 11.2505 23.7658 12.1059C26.8198 15.709 29.7842 25.3261 27.4652 30.7253ZM5.57085 19.4324C4.44857 16.2778 4.32387 11.3227 6.25122 7.95146C7.23787 6.22756 8.65111 5.17747 10.4538 4.82963C10.9919 4.72681 11.5301 4.67431 12.0705 4.67431C14.3019 4.67431 16.5683 5.5647 18.9595 7.39141C18.1675 8.20523 17.439 9.02343 16.7784 9.80443C14.8532 12.0752 13.0746 15.9825 12.1383 20.0012C11.3245 23.4972 11.1932 26.7765 11.7314 29.5133C11.3485 29.1195 10.9722 28.7038 10.6025 28.2641C7.55727 24.6347 5.97995 20.5875 5.57085 19.4324ZM37.6861 19.4324C37.2748 20.5875 35.6997 24.6347 32.6544 28.2641C32.2847 28.7038 31.9084 29.1195 31.5255 29.5133C32.0637 26.7765 31.9325 23.4972 31.1186 20.0012C30.1823 15.9846 28.4037 12.0774 26.4786 9.80443C25.8179 9.02561 25.0894 8.20523 24.2974 7.39141C26.6886 5.5647 28.955 4.67431 31.1865 4.67431C31.7268 4.67431 32.265 4.72681 32.8032 4.82963C34.6036 5.17529 36.0191 6.22538 37.0057 7.95146C38.9352 11.3227 38.8084 16.28 37.6861 19.4324Z" fill="url(#paint0_linear_255_74)"/>
<path d="M41.3679 8.96435C41.1886 8.2818 40.6394 6.93856 40.1385 6.05911C38.629 3.42076 36.3341 1.73843 33.4967 1.1937C32.3787 0.979303 31.2455 0.918048 30.132 1.01431C29.2854 1.0865 28.43 1.25495 27.5812 1.50872C27.1261 1.65967 26.682 1.81719 26.2576 1.98126C24.7109 2.62007 23.1489 3.57171 21.6066 4.81432L21.6022 4.81869L21.5978 4.81432C19.7996 3.36388 17.9794 2.3116 16.1833 1.68811C15.7611 1.54154 15.3367 1.41903 14.9101 1.31621C13.9081 1.12588 12.7771 1.00118 11.5148 0.983679C10.9132 1.00993 10.3094 1.07994 9.70995 1.1937C7.84167 1.55248 6.20747 2.41005 4.87736 3.70516C2.62842 6.04379 1.81022 9.09562 1.73147 9.44783C1.57395 10.1545 -0.0799361 16.0218 1.94148 16.105C3.96509 16.1903 2.06837 11.6793 2.78374 9.78474C3.49912 7.88801 4.46826 8.68871 4.6389 9.4894C4.80735 10.2901 4.55358 11.9746 6.15497 12.1868C7.75635 12.3968 7.83948 9.8263 7.88324 9.32095C7.9248 8.81559 8.20264 8.07397 9.14772 8.22492C10.0665 8.37149 9.92654 10.592 11.6767 10.7954C13.6719 11.0273 13.4881 9.27938 14.6257 9.27938C15.7633 9.27938 16.0586 9.91162 15.9733 10.8808C15.888 11.8499 15.2579 14.2104 16.7324 14.3373C18.2069 14.4642 17.4915 11.8521 17.4478 10.8392C17.4062 9.82849 17.0256 7.5533 19.2592 7.42641C21.4928 7.29953 21.1144 9.53315 20.9875 9.91162C20.8606 10.2901 19.9768 12.4406 21.4928 12.5237C23.0089 12.609 22.0835 10.417 22.0835 9.65785C22.0835 8.89872 22.1688 7.84645 23.0111 7.84645C23.8533 7.84645 23.9802 9.61628 23.8971 10.4585C23.814 11.3008 22.6523 14.1557 24.1924 14.2936C25.6144 14.4204 24.4462 11.723 24.6978 10.1216C24.9516 8.52025 25.6669 7.50954 26.5529 7.97333C27.4368 8.43712 28.2375 9.65785 29.4188 9.7016C30.598 9.74317 31.3571 8.52244 32.6631 8.54432C33.9692 8.56401 33.6564 9.86349 33.5557 10.3492C33.466 10.7801 33.1948 11.8565 34.1026 11.7887C34.8968 11.7296 34.4352 10.6292 34.4352 9.61847C34.4352 8.60776 35.2359 8.01927 36.1197 8.54432C37.0057 9.07155 36.625 10.1654 37.9748 10.4192C39.3225 10.6729 39.2809 9.0278 40.25 9.24C41.2192 9.45002 39.9547 11.3052 41.1776 11.3467C41.7924 11.3686 41.5473 9.64691 41.3679 8.96654V8.96435Z" fill="#CCABD0"/>
</g>
<defs>
<linearGradient id="paint0_linear_255_74" x1="21.8275" y1="35.1094" x2="21.5956" y2="10.9026" gradientUnits="userSpaceOnUse">
<stop stop-color="#522C7B"/>
<stop offset="1" stop-color="#8654A2"/>
</linearGradient>
<clipPath id="clip0_255_74">
<rect width="43" height="39" fill="white"/>
</clipPath>
</defs>
</svg>
